# xmcd
#
# Track frame offsets: 
#        150
#        3780
#        20825
#        35330
#        50905
#        55637
#        72245
#        87977
#        107892
#        125932
#        141990
#        166922
#        187535
#        218172
#        239277
#        260810
#
# Disc length: 3601 seconds
#
# Revision: 4
# Processed by: cddbd v1.5.1PL2 Copyright (c) Steve Scherf et al.
# Submitted via: ExactAudioCopy v0.95a5
#
DISCID=e50e0f10
DTITLE=Giant Sand - Chore Of Enchantment
DYEAR=2000
DGENRE=Indie Pop
TTITLE0=Overture
TTITLE1=(Well) Dusted ( For The Millenium)
TTITLE2=Punishing Sun
TTITLE3=X-Tra Wide
TTITLE4=1972
TTITLE5=Temptation Of Egg
TTITLE6=Raw
TTITLE7=Wolfy
TTITLE8=Shiver
TTITLE9=Dirty From The Rain
TTITLE10=Astonished (In Memphis)
TTITLE11=No Reply
TTITLE12=Satellite
TTITLE13=Bottom Line Man
TTITLE14=Way To End The Day
TTITLE15=Shrine
EXTD=
EXTT0=
EXTT1=
EXTT2=
EXTT3=
EXTT4=
EXTT5=
EXTT6=
EXTT7=
EXTT8=
EXTT9=
EXTT10=
EXTT11=
EXTT12=
EXTT13=
EXTT14=
EXTT15=
PLAYORDER=
